<?xml version="1.0" encoding="UTF-8"?>
<!--Generator: Apple Native CoreSVG 341-->
<!DOCTYPE svg
PUBLIC "-//W3C//DTD SVG 1.1//EN"
       "http://www.w3.org/Graphics/SVG/1.1/DTD/svg11.dtd">
<svg version="1.1" xmlns="http://www.w3.org/2000/svg" xmlns:xlink="http://www.w3.org/1999/xlink" viewBox="0 0 646.094 951.953">
 <g>
  <rect height="951.953" opacity="0" width="646.094" x="0" y="0"/>
  <path d="M312.5 193.75C359.375 193.75 397.656 155.859 397.656 107.812C397.656 61.3281 359.375 23.0469 312.5 23.0469C264.844 23.0469 226.953 61.3281 226.953 107.812C226.953 155.859 264.844 193.75 312.5 193.75ZM39.8438 942.188C57.0312 951.172 82.0312 947.656 93.75 926.562L192.188 749.219L250.391 618.359C251.562 615.625 255.469 614.453 257.812 616.797L414.062 730.078L414.062 907.031C414.062 929.297 431.641 946.875 453.516 946.875C475.781 946.875 492.969 929.297 492.969 907.031L492.969 712.5C492.969 701.172 489.844 689.453 480.859 681.25L317.969 527.344L333.203 403.516C333.594 398.828 339.844 398.438 341.406 402.344L377.734 488.672C383.984 503.906 398.047 512.891 414.062 512.891L581.641 512.891C603.516 512.891 621.094 495.312 621.094 473.438C621.094 451.562 603.516 433.984 581.641 433.984L439.844 433.984L383.594 301.562C368.75 267.188 346.875 247.656 296.875 233.984L274.219 227.734C219.922 212.5 182.812 210.156 139.062 229.297L78.9062 255.078L78.9062 108.594C78.9062 87.1094 60.9375 69.5312 39.4531 69.5312C17.5781 69.5312 0 87.1094 0 108.594L0 319.922C0 348.047 29.2969 363.281 55.0781 351.953L166.797 303.125C171.875 301.172 176.562 304.297 175.781 309.766L119.531 717.578L24.2188 888.672C14.0625 907.031 20.7031 932.422 39.8438 942.188ZM555.078 373.828L598.438 373.828L598.438 21.4844C598.438 9.375 588.672 0 576.562 0C564.453 0 555.078 9.375 555.078 21.4844ZM522.656 396.484L630.469 396.484C643.359 396.484 648.828 385.547 644.531 373.828C634.766 344.531 607.812 324.219 576.562 324.219C545.312 324.219 518.359 344.531 508.594 373.828C504.297 385.547 509.766 396.484 522.656 396.484Z" fill="#98989d"/>
 </g>
</svg>
