<?xml version="1.0" encoding="UTF-8"?>
<!--Generator: Apple Native CoreSVG 341-->
<!DOCTYPE svg
PUBLIC "-//W3C//DTD SVG 1.1//EN"
       "http://www.w3.org/Graphics/SVG/1.1/DTD/svg11.dtd">
<svg version="1.1" xmlns="http://www.w3.org/2000/svg" xmlns:xlink="http://www.w3.org/1999/xlink" viewBox="0 0 823.264 919.141">
 <g>
  <rect height="919.141" opacity="0" width="823.264" x="0" y="0"/>
  <path d="M437.999 296.094L498.101 384.506C482.362 384.813 466.579 391.162 455.187 403.906C447.047 412.638 441.486 422.996 438.88 433.899C423.258 411.969 407.067 389.117 395.03 372.266C391.124 366.797 384.093 369.141 384.093 375.391C384.093 416.406 386.046 503.125 392.687 546.094C400.499 594.922 457.14 831.641 459.874 842.188C466.905 866.797 451.671 889.453 426.671 889.453C408.312 889.453 395.812 879.297 389.171 855.078C375.89 807.031 336.437 643.359 323.155 603.906C314.171 575.781 307.921 564.844 291.905 564.844C275.89 564.844 269.64 575.781 260.655 603.906C247.374 643.359 207.921 807.031 194.64 855.078C187.999 879.297 175.499 889.453 157.14 889.453C132.14 889.453 116.905 866.797 123.937 842.188C126.671 831.641 183.312 594.922 191.515 546.094C198.155 503.125 199.718 416.797 199.718 375.781C199.718 369.141 192.296 367.188 188.78 372.266C159.483 413.672 105.968 489.844 95.421 502.344C83.7022 515.625 64.9522 517.969 49.7178 509.375C29.796 498.828 25.1085 477.344 33.3116 462.5C36.4366 456.641 40.7335 450.781 44.6397 444.922L145.812 296.094C177.843 248.828 217.687 227.734 291.905 227.734C366.124 227.734 405.968 248.828 437.999 296.094ZM376.28 102.734C376.28 149.609 338.78 186.719 291.905 186.719C245.03 186.719 207.53 149.609 207.53 102.734C207.53 55.8594 245.03 18.3594 291.905 18.3594C338.78 18.3594 376.28 55.8594 376.28 102.734Z" fill="black"/>
  <path d="M620.421 456.641C654.796 456.641 683.312 428.516 683.312 394.141C683.312 359.766 654.796 331.641 620.421 331.641C586.046 331.641 557.921 359.766 557.921 394.141C557.921 428.516 586.046 456.641 620.421 456.641ZM533.702 889.453C548.546 889.453 561.046 880.859 565.733 861.328C573.937 832.031 597.765 731.25 605.577 706.641C611.046 690.625 612.218 689.453 616.515 689.453C620.812 689.453 621.983 690.625 627.452 706.641C634.874 731.25 659.093 832.031 667.296 861.328C671.983 880.859 684.483 889.453 699.327 889.453C721.593 889.453 734.483 868.75 729.015 848.438C727.062 841.797 693.077 696.875 687.608 666.406C684.874 647.656 683.312 614.844 683.312 601.172C683.312 594.922 690.343 592.969 693.858 598.047L743.858 670.312C754.405 685.547 771.593 685.938 782.921 677.734C793.077 670.703 798.155 656.25 788.39 641.406L723.937 541.406C701.28 507.031 666.124 493.359 630.187 493.359L616.515 493.359C590.343 493.359 579.015 485.156 561.437 466.406L520.03 422.266C509.483 411.328 488.78 410.938 477.062 424.609C466.515 435.547 462.999 451.562 471.983 465.234C476.28 471.875 512.218 512.109 540.343 547.266C546.593 555.078 550.108 562.5 550.108 573.828C550.108 593.359 549.327 642.188 545.421 666.406C539.952 696.875 505.968 841.797 504.015 848.438C498.546 868.75 511.437 889.453 533.702 889.453Z" fill="black" fill-opacity="0.5"/>
 </g>
</svg>
