<?xml version="1.0" encoding="UTF-8"?>
<!--Generator: Apple Native CoreSVG 341-->
<!DOCTYPE svg
PUBLIC "-//W3C//DTD SVG 1.1//EN"
       "http://www.w3.org/Graphics/SVG/1.1/DTD/svg11.dtd">
<svg version="1.1" xmlns="http://www.w3.org/2000/svg" xmlns:xlink="http://www.w3.org/1999/xlink" viewBox="0 0 1598.3 680.078">
 <g>
  <rect height="680.078" opacity="0" width="1598.3" x="0" y="0"/>
  <path d="M482.457 229.688L306.765 229.688C300.906 229.688 298.562 230.078 294.265 232.812L103.64 364.062L311.559 364.062L311.062 364.453C287.726 382.539 302.947 414.785 327.936 417.578L136.062 417.578L136.062 581.641C136.062 606.25 148.953 619.141 172.781 619.141L376.559 619.141C384.353 658.438 413.776 680.078 459.5 680.078L160.672 680.078C106.375 680.078 74.7341 650 74.7341 596.484L74.7341 417.578L32.5466 417.578C-0.656537 417.578-9.64091 380.078 11.8435 364.453L263.406 189.062C275.906 180.469 290.359 176.172 306.765 176.172L550.518 176.172ZM374.343 417.578L335.005 417.578C341.574 416.864 348.584 414.086 355.593 408.594L374.343 393.75Z" fill="white"/>
  <path d="M1334.89 189.062L1586.45 364.453C1608.33 380.078 1598.95 417.578 1566.14 417.578L1523.56 417.578L1523.56 596.484C1523.56 650 1491.92 680.078 1437.62 680.078L1138.41 680.078C1184.46 680.078 1213.65 658.438 1221.37 619.141L1425.52 619.141C1449.34 619.141 1462.23 606.25 1462.23 581.641L1462.23 417.578L1269.97 417.578C1294.96 414.785 1310.18 382.539 1286.84 364.453L1286.35 364.062L1494.66 364.062L1304.03 232.812C1299.73 230.078 1297.39 229.688 1291.53 229.688L1115.45 229.688L1047.39 176.172L1291.92 176.172C1307.94 176.172 1322.78 180.469 1334.89 189.062ZM1242.31 408.594C1249.32 414.086 1256.33 416.864 1262.9 417.578L1223.56 417.578L1223.56 393.75Z" fill="white"/>
  <path d="M355.593 408.594L781.375 74.6094C786.453 70.7031 793.093 67.9688 798.953 67.9688C805.203 67.9688 811.843 70.7031 816.922 74.6094L1242.31 408.594C1280.2 438.281 1318.09 388.672 1286.84 364.453L848.172 19.5312C832.156 7.03125 816.14 0 798.953 0C782.156 0 765.75 7.03125 749.734 19.5312L311.062 364.453C279.812 388.672 317.703 438.281 355.593 408.594ZM459.5 680.078L1138.41 680.078C1192.7 680.078 1223.56 650 1223.56 596.484L1223.56 337.109L1162.62 333.984L1162.62 581.641C1162.62 606.25 1150.12 619.141 1125.91 619.141L472 619.141C447.781 619.141 435.281 606.25 435.281 581.641L435.281 333.984L374.343 337.109L374.343 596.484C374.343 650 405.593 680.078 459.5 680.078ZM697 637.5L900.906 637.5L900.906 445.312C900.906 429.297 889.968 418.359 873.953 418.359L724.343 418.359C708.718 418.359 697 429.297 697 445.312Z" fill="white"/>
 </g>
</svg>
