<?xml version="1.0" encoding="UTF-8"?>
<!--Generator: Apple Native CoreSVG 341-->
<!DOCTYPE svg
PUBLIC "-//W3C//DTD SVG 1.1//EN"
       "http://www.w3.org/Graphics/SVG/1.1/DTD/svg11.dtd">
<svg version="1.1" xmlns="http://www.w3.org/2000/svg" xmlns:xlink="http://www.w3.org/1999/xlink" viewBox="0 0 1704.4 787.109">
 <g>
  <rect height="787.109" opacity="0" width="1704.4" x="0" y="0"/>
  <path d="M374.269 650C374.269 682.958 383.055 711.4 398.974 733.594L213.722 733.594C159.425 733.594 128.175 703.516 128.175 650L128.175 524.609L374.269 524.609Z" fill="#fc9230"/>
  <path d="M517.147 229.688L331.3 375.781C328.841 377.726 326.536 379.725 324.424 381.783C323.706 382.411 323.045 383.057 322.484 383.733C320.96 385.156 319.594 386.625 318.369 388.134C317.65 388.86 317.02 389.611 316.476 390.384C315.181 391.875 314.026 393.404 313.019 394.968C312.455 395.636 311.985 396.327 311.567 397.029C310.069 399.239 308.747 401.488 307.558 403.763C307.523 403.826 307.491 403.888 307.469 403.953C306.306 406.172 305.28 408.416 304.411 410.684C304.065 411.449 303.77 412.223 303.566 413.008C302.921 414.58 302.408 416.17 302.011 417.771C301.696 418.646 301.461 419.53 301.305 420.421C300.865 421.974 300.536 423.537 300.327 425.105C300.1 425.948 299.965 426.795 299.882 427.644C299.569 429.65 299.369 431.661 299.285 433.67C299.188 434.498 299.152 435.325 299.191 436.15C299.097 437.96 299.114 439.766 299.219 441.565C299.224 442.637 299.293 443.705 299.463 444.762C299.512 446.016 299.649 447.261 299.858 448.495C299.95 449.693 300.135 450.879 300.412 452.049C300.565 453.115 300.777 454.172 301.06 455.214C301.26 456.516 301.574 457.796 301.963 459.056C302.133 459.72 302.321 460.38 302.562 461.025C303.491 464.468 304.72 467.831 306.204 471.094L85.5969 471.094C52.3938 471.094 43.4094 433.594 65.2844 417.969L316.456 242.578C328.956 233.984 343.409 229.688 360.206 229.688Z" fill="#fc9230"/>
  <path d="M1576.22 524.609L1576.22 650C1576.22 703.516 1544.58 733.594 1490.68 733.594L1305.51 733.594C1321.4 711.4 1330.13 682.958 1330.13 650L1330.13 524.609Z" fill="#fc9230"/>
  <path d="M1387.55 242.578L1639.11 417.969C1660.99 433.594 1652 471.094 1618.8 471.094L1398.16 471.094C1399.73 467.636 1401.02 464.068 1401.99 460.417C1402.13 460.024 1402.25 459.621 1402.35 459.216C1402.76 457.907 1403.08 456.578 1403.29 455.226C1403.56 454.238 1403.76 453.236 1403.91 452.225C1404.19 451.027 1404.38 449.812 1404.48 448.585C1404.68 447.392 1404.81 446.19 1404.86 444.979C1405.04 443.891 1405.11 442.791 1405.11 441.688C1405.21 440.033 1405.24 438.372 1405.15 436.707C1405.2 435.875 1405.17 435.04 1405.09 434.204C1405 432.079 1404.79 429.952 1404.47 427.83C1404.38 426.99 1404.25 426.152 1404.02 425.319C1403.82 423.748 1403.49 422.184 1403.05 420.63C1402.89 419.74 1402.66 418.857 1402.34 417.982C1401.95 416.394 1401.44 414.817 1400.8 413.257C1400.6 412.465 1400.3 411.684 1399.95 410.911C1399.12 408.736 1398.14 406.583 1397.01 404.456C1396.96 404.305 1396.89 404.158 1396.81 404.012C1395.62 401.746 1394.3 399.506 1392.81 397.306C1392.4 396.616 1391.93 395.937 1391.38 395.281C1390.36 393.714 1389.2 392.184 1387.91 390.691C1387.36 389.924 1386.74 389.18 1386.02 388.46C1384.8 386.956 1383.43 385.492 1381.9 384.076C1381.34 383.404 1380.68 382.762 1379.97 382.138C1377.86 380.091 1375.55 378.105 1373.1 376.172L1372.6 375.781L1186.8 229.688L1344.19 229.688C1360.6 229.688 1375.05 233.984 1387.55 242.578Z" fill="#fc9230"/>
  <path d="M1262.94 503.906C1267.61 507.589 1272.3 510.748 1277 513.283L1277 650C1277 703.516 1245.75 733.594 1191.46 733.594L512.55 733.594C459.034 733.594 427.394 703.516 427.394 650L427.394 513.2C432.09 510.687 436.786 507.556 441.456 503.906L852.784 182.422ZM777.394 471.875C761.769 471.875 750.441 482.812 750.441 498.828L750.441 672.656L953.956 672.656L953.956 498.828C953.956 482.812 943.409 471.875 927.003 471.875Z" fill="#fc9230"/>
  <path d="M408.644 462.109L834.816 128.125C846.144 119.141 858.644 119.141 869.972 128.125L1295.75 462.109C1333.25 491.797 1371.53 442.188 1340.28 417.969L901.222 73.0469C868.409 46.875 835.597 46.875 802.784 73.0469L364.113 417.969C332.863 442.188 371.144 491.797 408.644 462.109Z" fill="#fc9230"/>
 </g>
</svg>
