<?xml version="1.0" encoding="UTF-8"?>
<!--Generator: Apple Native CoreSVG 341-->
<!DOCTYPE svg
PUBLIC "-//W3C//DTD SVG 1.1//EN"
       "http://www.w3.org/Graphics/SVG/1.1/DTD/svg11.dtd">
<svg version="1.1" xmlns="http://www.w3.org/2000/svg" xmlns:xlink="http://www.w3.org/1999/xlink" viewBox="0 0 932.812 822.266">
 <g>
  <rect height="822.266" opacity="0" width="932.812" x="0" y="0"/>
  <path d="M360.938 758.594L360.938 528.906C360.938 510.938 373.047 499.219 391.016 499.219L542.188 499.219C560.547 499.219 571.875 510.938 571.875 528.906L571.875 758.594ZM121.875 735.547C121.875 789.844 154.688 821.484 209.766 821.484L723.438 821.484C778.516 821.484 810.938 789.844 810.938 735.547L810.938 425.391L489.844 156.25C475 143.75 457.422 144.141 442.969 156.25L121.875 425.391ZM33.5938 417.188C44.5312 417.188 53.5156 411.328 61.7188 404.688L452.734 76.1719C457.031 72.6562 462.109 70.7031 466.406 70.7031C471.094 70.7031 475.781 72.6562 480.078 76.1719L871.484 404.688C879.297 411.328 888.281 417.188 899.219 417.188C920.312 417.188 932.812 401.953 932.812 385.938C932.812 376.953 929.297 367.578 920.312 360.547L513.281 18.75C498.438 6.25 482.422 0 466.406 0C450.391 0 434.375 6.25 419.531 18.75L12.5 360.547C3.90625 367.578 0 376.953 0 385.938C0 401.953 12.5 417.188 33.5938 417.188ZM720.703 209.766L818.75 292.578L818.75 116.406C818.75 99.2188 807.812 88.2812 790.625 88.2812L748.828 88.2812C732.031 88.2812 720.703 99.2188 720.703 116.406Z" fill="#fc9230"/>
 </g>
</svg>
