<?xml version="1.0" encoding="UTF-8"?>
<!--Generator: Apple Native CoreSVG 341-->
<!DOCTYPE svg
PUBLIC "-//W3C//DTD SVG 1.1//EN"
       "http://www.w3.org/Graphics/SVG/1.1/DTD/svg11.dtd">
<svg version="1.1" xmlns="http://www.w3.org/2000/svg" xmlns:xlink="http://www.w3.org/1999/xlink" viewBox="0 0 932.812 822.266">
 <g>
  <rect height="822.266" opacity="0" width="932.812" x="0" y="0"/>
  <path d="M353.125 781.25L579.688 781.25L579.688 528.906C579.688 510.938 567.969 499.219 550 499.219L383.203 499.219C365.234 499.219 353.125 510.938 353.125 528.906ZM33.5938 417.188C44.5312 417.188 53.5156 411.328 61.7188 404.688L452.734 76.1719C457.031 72.6562 462.109 70.7031 466.406 70.7031C471.094 70.7031 475.781 72.6562 480.078 76.1719L871.484 404.688C879.297 411.328 888.281 417.188 899.219 417.188C920.312 417.188 932.812 401.953 932.812 385.938C932.812 376.953 929.297 367.578 920.312 360.547L513.281 18.75C498.438 6.25 482.422 0 466.406 0C450.391 0 434.375 6.25 419.531 18.75L12.5 360.547C3.90625 367.578 0 376.953 0 385.938C0 401.953 12.5 417.188 33.5938 417.188ZM720.703 209.766L818.75 292.578L818.75 116.406C818.75 99.2188 807.812 88.2812 790.625 88.2812L748.828 88.2812C732.031 88.2812 720.703 99.2188 720.703 116.406ZM202.344 821.484L730.859 821.484C786.328 821.484 818.75 789.844 818.75 735.156L818.75 302.344L755.859 259.766L755.859 719.531C755.859 744.922 742.188 758.594 717.578 758.594L215.625 758.594C190.625 758.594 176.953 744.922 176.953 719.531L176.953 260.156L114.062 302.344L114.062 735.156C114.062 790.234 146.484 821.484 202.344 821.484Z" fill="white"/>
 </g>
</svg>
