<?xml version="1.0" encoding="UTF-8"?>
<!--Generator: Apple Native CoreSVG 341-->
<!DOCTYPE svg
PUBLIC "-//W3C//DTD SVG 1.1//EN"
       "http://www.w3.org/Graphics/SVG/1.1/DTD/svg11.dtd">
<svg version="1.1" xmlns="http://www.w3.org/2000/svg" xmlns:xlink="http://www.w3.org/1999/xlink" viewBox="0 0 791.563 645.508">
 <g>
  <rect height="645.508" opacity="0" width="791.563" x="0" y="0"/>
  <path d="M266.485 590.527L759.453 590.527C777.032 590.527 791.485 576.855 791.485 559.277C791.485 541.309 777.032 527.637 759.453 527.637L266.485 527.637C248.516 527.637 234.844 541.309 234.844 559.277C234.844 576.855 248.516 590.527 266.485 590.527Z" fill="#b78a66" fill-opacity="0.8"/>
  <path d="M45.3909 623.34L78.9847 598.73L111.407 623.34C123.125 632.324 135.625 622.949 131.328 610.059L118.438 570.215L151.25 545.605C161.407 537.793 157.5 523.73 144.61 523.73L103.594 523.73L89.9222 480.762C86.4065 469.824 71.1722 469.434 67.6565 480.762L53.9847 523.73L12.5784 523.73C-0.312223 523.73-4.6091 537.793 5.93778 545.605L39.1409 570.215L26.2503 610.059C21.9534 622.949 34.0628 631.543 45.3909 623.34Z" fill="#98989d"/>
  <path d="M266.485 354.59L759.453 354.59C777.032 354.59 791.485 340.527 791.485 322.949C791.485 305.371 777.032 291.699 759.453 291.699L266.485 291.699C248.516 291.699 234.844 305.371 234.844 322.949C234.844 340.527 248.516 354.59 266.485 354.59Z" fill="#b78a66" fill-opacity="0.8"/>
  <path d="M45.3909 386.621L78.9847 362.012L111.407 386.621C123.125 395.605 135.625 386.23 131.328 373.34L118.438 333.496L151.25 308.887C161.407 301.074 157.5 287.012 144.61 287.012L103.594 287.012L89.9222 244.043C86.4065 233.105 71.1722 233.105 67.6565 244.043L53.9847 287.012L12.5784 287.012C-0.312223 287.012-4.6091 301.074 5.93778 308.887L39.1409 333.496L26.2503 373.34C21.9534 386.23 34.0628 394.824 45.3909 386.621Z" fill="#98989d"/>
  <path d="M266.485 118.262L759.453 118.262C777.032 118.262 791.485 104.59 791.485 87.0117C791.485 69.043 777.032 55.3711 759.453 55.3711L266.485 55.3711C248.516 55.3711 234.844 69.043 234.844 87.0117C234.844 104.59 248.516 118.262 266.485 118.262Z" fill="#b78a66" fill-opacity="0.8"/>
  <path d="M45.3909 151.074L78.9847 126.465L111.407 151.074C123.125 159.668 135.625 150.684 131.328 137.793L118.438 97.9492L151.25 73.3398C161.407 65.5273 157.5 51.0742 144.61 51.0742L103.594 51.0742L89.9222 8.49609C86.4065-2.83203 71.1722-2.83203 67.6565 8.49609L53.9847 51.0742L12.5784 51.0742C-0.312223 51.0742-4.6091 65.5273 5.93778 73.3398L39.1409 97.9492L26.2503 137.793C21.5628 150.684 34.0628 159.277 45.3909 151.074Z" fill="#98989d"/>
 </g>
</svg>
