<?xml version="1.0" encoding="UTF-8"?>
<!--Generator: Apple Native CoreSVG 341-->
<!DOCTYPE svg
PUBLIC "-//W3C//DTD SVG 1.1//EN"
       "http://www.w3.org/Graphics/SVG/1.1/DTD/svg11.dtd">
<svg version="1.1" xmlns="http://www.w3.org/2000/svg" xmlns:xlink="http://www.w3.org/1999/xlink" viewBox="0 0 985.66 585.547">
 <g>
  <rect height="585.547" opacity="0" width="985.66" x="0" y="0"/>
  <path d="M71.9317 585.547C99.2754 585.547 107.088 571.484 110.213 553.516C145.369 358.984 226.229 200 398.104 25C407.869 14.8438 400.057 0.78125 388.338 0.78125L370.76 0.78125C360.994 0.78125 353.182 2.73438 339.119 14.0625C200.057 123.828 56.3067 296.484 1.22857 550.391C-3.06831 568.75 4.35357 585.547 28.5723 585.547ZM959.822 585.547C981.697 585.547 990.291 569.922 983.26 550.391C918.416 378.125 905.525 215.234 949.275 23.8281C952.791 8.20312 943.416 0.78125 931.307 0.78125L916.072 0.78125C903.182 0.78125 894.979 5.07812 891.072 17.1875C831.697 199.219 834.822 383.594 880.135 562.5C883.26 576.172 892.635 585.547 912.557 585.547ZM602.4 102.344C617.244 102.344 625.057 98.8281 631.697 86.7188C639.119 73.4375 650.057 54.6875 669.588 25C678.182 12.1094 669.588 0.78125 656.307 0.78125L644.588 0.78125C633.65 0.78125 627.791 2.73438 621.15 9.76562C607.479 23.8281 589.9 45.7031 572.713 71.4844C562.947 85.9375 569.588 102.344 587.166 102.344ZM529.744 293.75C546.541 293.75 553.963 285.547 557.869 271.484C561.775 253.516 568.807 228.516 577.4 202.734C584.041 184.375 573.494 175.781 558.65 175.781L534.822 175.781C519.979 175.781 513.729 180.469 507.479 192.969C499.275 212.109 488.729 239.062 478.963 266.406C474.275 281.25 479.744 293.75 498.494 293.75ZM490.682 585.547C508.26 585.547 518.025 576.953 518.025 558.203C519.197 498.047 523.104 440.625 528.182 401.562C531.307 378.906 522.713 372.266 504.354 372.266L480.916 372.266C466.854 372.266 456.697 378.125 452.791 393.75C441.854 437.109 435.213 505.078 433.65 557.812C433.26 576.172 442.244 585.547 459.822 585.547Z" fill="#98989d"/>
 </g>
</svg>
