<?xml version="1.0" encoding="UTF-8"?>
<!--Generator: Apple Native CoreSVG 341-->
<!DOCTYPE svg
PUBLIC "-//W3C//DTD SVG 1.1//EN"
       "http://www.w3.org/Graphics/SVG/1.1/DTD/svg11.dtd">
<svg version="1.1" xmlns="http://www.w3.org/2000/svg" xmlns:xlink="http://www.w3.org/1999/xlink" viewBox="0 0 796.875 797.266">
 <g>
  <rect height="797.266" opacity="0" width="796.875" x="0" y="0"/>
  <path d="M398.438 796.875C618.359 796.875 796.875 618.359 796.875 398.438C796.875 178.516 618.359 0 398.438 0C178.516 0 0 178.516 0 398.438C0 618.359 178.516 796.875 398.438 796.875ZM398.438 730.469C214.844 730.469 66.4062 582.031 66.4062 398.438C66.4062 214.844 214.844 66.4062 398.438 66.4062C582.031 66.4062 730.469 214.844 730.469 398.438C730.469 582.031 582.031 730.469 398.438 730.469Z" fill="#b78a66" fill-opacity="0.8"/>
  <path d="M285.938 600L398.047 517.578L510.156 600C533.203 617.188 557.031 599.219 548.438 572.656L503.906 440.234L617.188 359.375C637.891 344.141 631.641 313.672 602.734 314.062L463.672 315.234L421.094 182.031C412.891 156.25 383.203 156.25 375 182.031L332.422 315.234L193.359 314.062C164.844 313.672 157.812 343.75 178.906 359.375L292.188 440.234L248.047 572.656C239.062 599.219 263.281 617.188 285.938 600Z" fill="#98989d"/>
 </g>
</svg>
