<?xml version="1.0" encoding="UTF-8"?>
<!--Generator: Apple Native CoreSVG 341-->
<!DOCTYPE svg
PUBLIC "-//W3C//DTD SVG 1.1//EN"
       "http://www.w3.org/Graphics/SVG/1.1/DTD/svg11.dtd">
<svg version="1.1" xmlns="http://www.w3.org/2000/svg" xmlns:xlink="http://www.w3.org/1999/xlink" viewBox="0 0 796.875 955.078">
 <g>
  <rect height="955.078" opacity="0" width="796.875" x="0" y="0"/>
  <path d="M398.438 875.781C616.406 875.781 796.875 694.922 796.875 477.344C796.875 259.375 616.016 78.9062 398.047 78.9062C180.469 78.9062 0 259.375 0 477.344C0 694.922 180.859 875.781 398.438 875.781ZM398.438 809.375C214.062 809.375 66.7969 661.719 66.7969 477.344C66.7969 292.969 213.672 145.312 398.047 145.312C582.422 145.312 730.078 292.969 730.469 477.344C730.859 661.719 582.812 809.375 398.438 809.375ZM356.25 103.125L439.844 103.125L439.844 42.9688C439.844 19.5312 421.484 0 398.047 0C375.391 0 356.25 19.5312 356.25 42.9688ZM641.797 187.5L700 247.266L742.969 203.516C751.953 194.531 757.031 182.422 757.031 171.875C757.031 150 739.453 132.422 716.797 132.422C703.516 132.422 694.141 136.328 684.766 145.312Z" fill="#b78a66" fill-opacity="0.8"/>
  <path d="M398.438 540.625C433.203 540.625 461.328 512.5 461.328 477.734C461.328 453.125 447.266 431.641 425.391 421.094L425.391 226.953C425.391 211.719 413.281 200 398.047 200C382.812 200 371.094 211.719 371.094 226.953L371.094 420.703C349.609 432.031 335.547 453.125 335.547 477.734C335.547 512.5 363.281 540.625 398.438 540.625Z" fill="#98989d"/>
 </g>
</svg>
