<?xml version="1.0" encoding="UTF-8"?>
<!--Generator: Apple Native CoreSVG 341-->
<!DOCTYPE svg
PUBLIC "-//W3C//DTD SVG 1.1//EN"
       "http://www.w3.org/Graphics/SVG/1.1/DTD/svg11.dtd">
<svg version="1.1" xmlns="http://www.w3.org/2000/svg" xmlns:xlink="http://www.w3.org/1999/xlink" viewBox="0 0 796.875 797.266">
 <g>
  <rect height="797.266" opacity="0" width="796.875" x="0" y="0"/>
  <path d="M796.875 398.438C796.875 617.969 618.359 796.875 398.438 796.875C178.906 796.875 0 617.969 0 398.438C0 178.516 178.906 0 398.438 0C618.359 0 796.875 178.516 796.875 398.438ZM385.547 398.438C385.547 479.688 409.766 569.531 489.844 569.531C569.922 569.531 594.141 479.688 594.141 398.438C594.141 317.188 569.922 227.344 489.844 227.344C409.766 227.344 385.547 317.188 385.547 398.438ZM247.266 246.875L203.125 281.25C196.094 286.719 190.625 294.531 190.625 305.078C190.625 317.578 198.828 326.562 210.938 326.562C217.578 326.562 221.484 324.609 225.781 321.484L262.5 291.797L262.5 535.938C262.5 552.344 275.781 565.625 292.188 565.625C307.812 565.625 321.484 552.344 321.484 535.938L321.484 263.281C321.484 242.578 308.203 230.469 287.891 230.469C270.703 230.469 257.031 239.844 247.266 246.875ZM535.156 398.438C535.156 468.359 522.656 521.484 489.844 521.484C457.031 521.484 444.531 468.359 444.531 398.438C444.531 328.125 457.031 275.391 489.844 275.391C522.656 275.391 535.156 328.125 535.156 398.438Z" fill="white"/>
 </g>
</svg>
