<?xml version="1.0" encoding="UTF-8"?>
<!--Generator: Apple Native CoreSVG 341-->
<!DOCTYPE svg
PUBLIC "-//W3C//DTD SVG 1.1//EN"
       "http://www.w3.org/Graphics/SVG/1.1/DTD/svg11.dtd">
<svg version="1.1" xmlns="http://www.w3.org/2000/svg" xmlns:xlink="http://www.w3.org/1999/xlink" viewBox="0 0 796.875 797.266">
 <g>
  <rect height="797.266" opacity="0" width="796.875" x="0" y="0"/>
  <path d="M796.875 398.438C796.875 617.969 618.359 796.875 398.438 796.875C178.906 796.875 0 617.969 0 398.438C0 178.516 178.906 0 398.438 0C618.359 0 796.875 178.516 796.875 398.438ZM273.828 246.875L229.688 281.25C222.266 286.719 216.797 294.531 216.797 305.078C216.797 317.578 225.391 326.562 237.891 326.562C243.75 326.562 248.047 324.609 251.953 321.484L289.062 291.797L289.062 535.938C289.062 552.344 302.344 565.625 318.75 565.625C334.766 565.625 348.047 552.344 348.047 535.938L348.047 263.281C348.047 242.578 335.156 230.469 314.062 230.469C296.875 230.469 283.203 239.844 273.828 246.875ZM459.766 246.875L415.625 281.25C408.594 286.719 402.734 294.531 402.734 305.078C402.734 317.578 411.328 326.562 423.438 326.562C429.688 326.562 433.984 324.609 437.891 321.484L475 291.797L475 535.938C475 552.344 488.281 565.625 504.688 565.625C520.703 565.625 533.984 552.344 533.984 535.938L533.984 263.281C533.984 242.578 521.094 230.469 500 230.469C482.812 230.469 469.141 239.844 459.766 246.875Z" fill="white"/>
 </g>
</svg>
