<?xml version="1.0" encoding="UTF-8"?>
<!--Generator: Apple Native CoreSVG 341-->
<!DOCTYPE svg
PUBLIC "-//W3C//DTD SVG 1.1//EN"
       "http://www.w3.org/Graphics/SVG/1.1/DTD/svg11.dtd">
<svg version="1.1" xmlns="http://www.w3.org/2000/svg" xmlns:xlink="http://www.w3.org/1999/xlink" viewBox="0 0 796.875 797.266">
 <g>
  <rect height="797.266" opacity="0" width="796.875" x="0" y="0"/>
  <path d="M796.875 398.438C796.875 617.969 618.359 796.875 398.438 796.875C178.906 796.875 0 617.969 0 398.438C0 178.516 178.906 0 398.438 0C618.359 0 796.875 178.516 796.875 398.438ZM248.828 247.266L204.688 281.25C197.656 286.719 191.797 294.531 191.797 305.078C191.797 317.578 200.391 326.562 212.5 326.562C219.141 326.562 223.047 324.609 227.344 321.875L264.062 291.797L264.062 536.328C264.062 552.344 277.344 565.625 293.75 565.625C309.766 565.625 323.047 552.344 323.047 536.328L323.047 263.281C323.047 242.578 310.156 230.469 289.062 230.469C272.266 230.469 258.594 239.844 248.828 247.266ZM384.766 311.719C384.766 326.953 393.75 337.5 408.984 337.5C422.656 337.5 430.469 331.25 435.156 317.969C442.188 291.016 452.344 274.219 475.781 274.219C499.609 274.219 513.281 295.312 513.281 323.828C513.281 356.25 490.625 389.062 469.531 416.406L399.609 505.469C392.188 515.234 384.375 525.391 384.375 537.891C384.375 551.562 393.359 561.328 411.719 561.328L551.562 561.328C566.016 561.328 574.609 551.953 574.609 537.891C574.609 522.266 565.625 514.062 551.562 514.062L456.25 514.062L456.25 510.547L514.844 436.328C555.078 386.328 568.359 356.641 568.359 321.094C568.359 266.797 531.25 227.344 475.781 227.344C423.828 227.344 384.766 269.922 384.766 311.719Z" fill="white"/>
 </g>
</svg>
