<?xml version="1.0" encoding="UTF-8"?>
<!--Generator: Apple Native CoreSVG 341-->
<!DOCTYPE svg
PUBLIC "-//W3C//DTD SVG 1.1//EN"
       "http://www.w3.org/Graphics/SVG/1.1/DTD/svg11.dtd">
<svg version="1.1" xmlns="http://www.w3.org/2000/svg" xmlns:xlink="http://www.w3.org/1999/xlink" viewBox="0 0 796.875 797.266">
 <g>
  <rect height="797.266" opacity="0" width="796.875" x="0" y="0"/>
  <path d="M796.875 398.438C796.875 617.969 618.359 796.875 398.438 796.875C178.906 796.875 0 617.969 0 398.438C0 178.516 178.906 0 398.438 0C618.359 0 796.875 178.516 796.875 398.438ZM278.906 286.328C276.953 292.578 276.562 297.266 276.562 302.734C276.562 318.359 287.109 328.516 303.125 328.516C317.188 328.516 324.609 319.531 331.641 308.203C342.188 283.984 363.672 258.203 402.344 258.203C440.625 258.203 466.016 280.469 466.016 313.672C466.016 342.969 441.406 367.578 417.578 392.578L288.672 530.469C282.031 538.281 278.125 546.484 278.125 554.688C278.125 571.094 289.062 581.25 307.031 581.25L514.062 581.25C530.078 581.25 541.406 571.094 541.406 554.688C541.406 537.891 530.078 528.125 514.062 528.125L367.578 528.125L367.578 525.391L462.891 423.438C498.438 385.547 523.438 353.516 523.438 308.594C523.438 247.656 474.219 206.641 399.609 206.641C342.578 206.641 292.188 241.406 278.906 286.328Z" fill="white"/>
 </g>
</svg>
