<?xml version="1.0" encoding="UTF-8"?>
<!--Generator: Apple Native CoreSVG 341-->
<!DOCTYPE svg
PUBLIC "-//W3C//DTD SVG 1.1//EN"
       "http://www.w3.org/Graphics/SVG/1.1/DTD/svg11.dtd">
<svg version="1.1" xmlns="http://www.w3.org/2000/svg" xmlns:xlink="http://www.w3.org/1999/xlink" viewBox="0 0 796.875 797.266">
 <g>
  <rect height="797.266" opacity="0" width="796.875" x="0" y="0"/>
  <path d="M796.875 398.438C796.875 617.969 618.359 796.875 398.438 796.875C178.906 796.875 0 617.969 0 398.438C0 178.516 178.906 0 398.438 0C618.359 0 796.875 178.516 796.875 398.438ZM276.953 284.766C275.781 290.625 275.391 294.922 275.391 300.781C275.391 316.797 286.719 327.734 302.734 327.734C317.188 327.734 325.781 320.703 330.469 306.641C339.453 276.562 364.453 257.812 401.953 257.812C442.188 257.812 467.188 277.734 467.188 310.156C467.188 343.359 439.062 367.578 400.781 367.578L375.391 367.578C360.547 367.578 350 377.734 350 392.969C350 407.031 360.547 417.578 375.391 417.578L402.734 417.578C448.047 417.578 479.297 442.578 479.297 478.906C479.297 515.234 447.656 538.672 400.781 538.672C357.031 538.672 332.812 517.578 323.047 489.844C317.578 475.781 309.375 469.141 295.312 469.141C278.906 469.141 267.188 480.469 267.188 496.875C267.188 502.734 267.969 506.25 269.141 512.109C281.25 558.594 333.594 590.234 399.609 590.234C486.328 590.234 539.844 544.922 539.844 481.25C539.844 433.984 503.906 396.094 455.078 391.406L455.078 388.281C495.703 382.422 526.953 345.312 526.953 303.125C526.953 246.875 475.391 206.641 403.125 206.641C337.5 206.641 287.891 237.109 276.953 284.766Z" fill="white"/>
 </g>
</svg>
