<?xml version="1.0" encoding="UTF-8"?>
<!--Generator: Apple Native CoreSVG 341-->
<!DOCTYPE svg
PUBLIC "-//W3C//DTD SVG 1.1//EN"
       "http://www.w3.org/Graphics/SVG/1.1/DTD/svg11.dtd">
<svg version="1.1" xmlns="http://www.w3.org/2000/svg" xmlns:xlink="http://www.w3.org/1999/xlink" viewBox="0 0 796.875 797.266">
 <g>
  <rect height="797.266" opacity="0" width="796.875" x="0" y="0"/>
  <path d="M796.875 398.438C796.875 617.969 618.359 796.875 398.438 796.875C178.906 796.875 0 617.969 0 398.438C0 178.516 178.906 0 398.438 0C618.359 0 796.875 178.516 796.875 398.438ZM370.703 241.016C328.906 304.297 279.297 377.734 246.094 432.031C237.891 445.703 235.156 455.469 235.156 467.578C235.156 491.406 251.172 507.031 276.953 507.031L421.484 507.031L421.484 548.047C421.484 569.141 432.422 582.031 451.172 582.031C470.312 582.031 481.25 569.531 481.25 548.047L481.25 507.031L512.109 507.031C527.734 507.031 538.672 496.484 538.672 480.859C538.672 464.844 528.125 453.906 512.109 453.906L481.25 453.906L481.25 249.219C481.25 223.828 461.719 206.641 432.812 206.641C404.688 206.641 386.719 216.797 370.703 241.016ZM421.484 453.906L294.531 453.906L294.531 451.562C325.391 398.828 376.562 322.656 418.75 258.984L421.484 258.984Z" fill="white"/>
 </g>
</svg>
