<?xml version="1.0" encoding="UTF-8"?>
<!--Generator: Apple Native CoreSVG 341-->
<!DOCTYPE svg
PUBLIC "-//W3C//DTD SVG 1.1//EN"
       "http://www.w3.org/Graphics/SVG/1.1/DTD/svg11.dtd">
<svg version="1.1" xmlns="http://www.w3.org/2000/svg" xmlns:xlink="http://www.w3.org/1999/xlink" viewBox="0 0 796.875 797.266">
 <g>
  <rect height="797.266" opacity="0" width="796.875" x="0" y="0"/>
  <path d="M796.875 398.438C796.875 617.969 618.359 796.875 398.438 796.875C178.906 796.875 0 617.969 0 398.438C0 178.516 178.906 0 398.438 0C618.359 0 796.875 178.516 796.875 398.438ZM328.906 215.625C302.344 215.625 285.156 230.469 283.594 253.906L272.266 387.5C270.703 410.938 284.375 426.172 306.641 426.172C321.484 426.172 330.469 423.047 346.875 410.938C366.016 394.531 381.25 388.281 401.562 388.281C444.141 388.281 472.656 417.969 472.656 462.5C472.656 506.641 439.453 539.453 394.922 539.453C361.719 539.453 333.594 523.047 320.312 496.484C313.281 483.594 303.516 476.953 291.797 476.953C275.391 476.953 264.453 488.281 264.453 503.906C264.453 510.938 266.016 517.188 268.75 523.438C284.766 564.453 331.641 590.234 396.094 590.234C477.734 590.234 533.984 539.062 533.984 460.938C533.984 389.844 482.812 340.234 408.984 340.234C376.172 340.234 342.578 354.688 328.125 374.609L325.391 374.609L334.766 265.625L495.703 265.625C509.375 265.625 519.531 255.078 519.531 240.625C519.531 225.781 509.766 215.625 495.703 215.625Z" fill="white"/>
 </g>
</svg>
