<?xml version="1.0" encoding="UTF-8"?>
<!--Generator: Apple Native CoreSVG 341-->
<!DOCTYPE svg
PUBLIC "-//W3C//DTD SVG 1.1//EN"
       "http://www.w3.org/Graphics/SVG/1.1/DTD/svg11.dtd">
<svg version="1.1" xmlns="http://www.w3.org/2000/svg" xmlns:xlink="http://www.w3.org/1999/xlink" viewBox="0 0 796.875 797.266">
 <g>
  <rect height="797.266" opacity="0" width="796.875" x="0" y="0"/>
  <path d="M796.875 398.438C796.875 617.969 618.359 796.875 398.438 796.875C178.906 796.875 0 617.969 0 398.438C0 178.516 178.906 0 398.438 0C618.359 0 796.875 178.516 796.875 398.438ZM257.422 407.422C257.422 462.891 267.188 503.125 284.375 530.078C310.156 573.047 354.297 590.234 401.562 590.234C482.812 590.234 539.844 542.969 539.844 460.547C539.844 383.984 482.031 341.016 418.359 341.016C364.453 341.016 332.812 368.359 319.922 397.656C319.141 397.656 317.578 397.656 316.797 397.656C316.797 395.703 316.797 394.531 316.797 393.359C316.797 310.938 354.297 258.203 409.766 258.203C437.5 258.203 453.516 270.312 464.844 284.375C477.734 297.266 485.938 304.297 499.609 304.297C513.281 304.297 523.828 294.531 523.828 280.469C523.828 273.828 522.656 268.359 520.312 262.5C507.812 232.812 463.672 206.641 411.719 206.641C316.406 206.641 257.422 273.047 257.422 407.422ZM476.562 463.281C476.562 510.547 446.094 541.797 398.828 541.797C354.297 541.797 321.875 508.594 321.875 462.891C321.875 418.75 353.906 387.109 399.219 387.109C444.922 387.109 476.562 418.359 476.562 463.281Z" fill="white"/>
 </g>
</svg>
