<?xml version="1.0" encoding="UTF-8"?>
<!--Generator: Apple Native CoreSVG 341-->
<!DOCTYPE svg
PUBLIC "-//W3C//DTD SVG 1.1//EN"
       "http://www.w3.org/Graphics/SVG/1.1/DTD/svg11.dtd">
<svg version="1.1" xmlns="http://www.w3.org/2000/svg" xmlns:xlink="http://www.w3.org/1999/xlink" viewBox="0 0 796.875 797.266">
 <g>
  <rect height="797.266" opacity="0" width="796.875" x="0" y="0"/>
  <path d="M796.875 398.438C796.875 617.969 618.359 796.875 398.438 796.875C178.906 796.875 0 617.969 0 398.438C0 178.516 178.906 0 398.438 0C618.359 0 796.875 178.516 796.875 398.438ZM270.703 304.688C270.703 343.359 295.312 374.609 335.938 387.109L335.938 389.453C287.5 399.219 255.078 436.719 255.078 481.641C255.078 546.875 312.109 590.234 397.656 590.234C483.594 590.234 542.188 546.094 542.188 481.25C542.188 436.328 508.984 399.219 460.938 389.453L460.938 387.109C500.781 375.391 526.172 343.359 526.172 304.688C526.172 246.484 473.438 206.641 398.438 206.641C323.438 206.641 270.703 246.484 270.703 304.688ZM480.859 478.125C480.859 517.578 445.703 545.703 398.828 545.703C351.562 545.703 316.797 517.578 316.797 478.125C316.797 439.844 351.953 411.328 398.828 411.328C446.875 411.328 480.859 439.453 480.859 478.125ZM466.797 309.375C466.797 344.141 438.281 368.75 398.438 368.75C358.594 368.75 330.078 344.141 330.078 309.375C330.078 275.781 358.203 251.562 398.438 251.562C438.672 251.562 466.797 275.781 466.797 309.375Z" fill="white"/>
 </g>
</svg>
