<?xml version="1.0" encoding="UTF-8"?>
<!--Generator: Apple Native CoreSVG 341-->
<!DOCTYPE svg
PUBLIC "-//W3C//DTD SVG 1.1//EN"
       "http://www.w3.org/Graphics/SVG/1.1/DTD/svg11.dtd">
<svg version="1.1" xmlns="http://www.w3.org/2000/svg" xmlns:xlink="http://www.w3.org/1999/xlink" viewBox="0 0 796.875 797.266">
 <g>
  <rect height="797.266" opacity="0" width="796.875" x="0" y="0"/>
  <path d="M796.875 398.438C796.875 617.969 618.359 796.875 398.438 796.875C178.906 796.875 0 617.969 0 398.438C0 178.516 178.906 0 398.438 0C618.359 0 796.875 178.516 796.875 398.438ZM258.594 335.156C258.594 410.938 316.016 453.906 378.906 453.906C432.422 453.906 464.453 427.344 477.344 397.656L480.078 397.656C480.859 485.938 443.359 538.672 387.891 538.672C360.156 538.672 341.406 527.344 325 504.688C317.969 495.312 310.156 488.672 297.266 488.672C281.641 488.672 270.703 499.219 270.703 514.844C270.703 519.141 271.484 523.828 273.047 528.516C282.812 556.641 320.703 590.234 388.281 590.234C485.938 590.234 538.672 520.703 538.672 385.547C538.672 269.531 486.328 206.641 395.703 206.641C312.5 206.641 258.594 257.031 258.594 335.156ZM475.391 333.203C475.391 376.562 442.969 408.203 398.047 408.203C352.734 408.203 321.094 376.562 321.094 332.422C321.094 285.547 351.953 254.688 398.438 254.688C442.188 254.688 475.391 287.891 475.391 333.203Z" fill="white"/>
 </g>
</svg>
