<?xml version="1.0" encoding="UTF-8"?>
<!--Generator: Apple Native CoreSVG 341-->
<!DOCTYPE svg
PUBLIC "-//W3C//DTD SVG 1.1//EN"
       "http://www.w3.org/Graphics/SVG/1.1/DTD/svg11.dtd">
<svg version="1.1" xmlns="http://www.w3.org/2000/svg" xmlns:xlink="http://www.w3.org/1999/xlink" viewBox="0 0 719.141 719.141">
 <g>
  <rect height="719.141" opacity="0" width="719.141" x="0" y="0"/>
  <path d="M122.656 719.141L596.484 719.141C678.516 719.141 719.141 678.906 719.141 598.438L719.141 121.094C719.141 40.625 678.516 0 596.484 0L122.656 0C41.0156 0 0 40.625 0 121.094L0 598.438C0 678.906 41.0156 719.141 122.656 719.141Z" fill="black" fill-opacity="0.8"/>
  <path d="M178.906 244.141C142.578 243.359 113.281 214.844 113.281 178.125C113.281 142.188 142.578 113.281 178.906 113.281C214.453 113.281 244.141 142.188 244.141 178.125C244.141 214.844 214.453 244.922 178.906 244.141ZM541.016 244.141C504.688 243.359 475 214.844 475 178.125C475 142.188 504.688 113.281 541.016 113.281C576.562 113.281 605.859 142.188 605.859 178.125C605.859 214.844 576.562 244.922 541.016 244.141ZM359.766 425.391C323.438 425.391 294.531 396.094 294.531 359.375C294.531 323.438 323.438 294.531 359.766 294.531C395.312 294.531 425 323.438 425 359.375C425 396.094 395.312 425.391 359.766 425.391ZM178.906 606.641C142.578 606.641 113.672 577.344 113.672 541.016C113.672 504.688 142.578 475.781 178.906 475.781C214.453 475.781 244.141 504.688 244.141 541.016C244.141 577.344 214.453 606.641 178.906 606.641ZM541.016 606.641C504.688 606.641 475.781 577.344 475.781 541.016C475.781 504.688 504.688 475.781 541.016 475.781C576.562 475.781 605.859 504.688 605.859 541.016C605.859 577.344 576.562 606.641 541.016 606.641Z" fill="#ffd600"/>
 </g>
</svg>
